# Blender 4.3.2
# www.blender.org
mtllib Violin.mtl
o Violin
v 2.007931 -0.853847 -2.223401
v 1.889903 -0.853847 -2.223401
v 2.092956 -0.625545 -1.733013
v 1.804878 -0.625546 -1.733013
v 2.046175 -0.683450 -1.905004
v 2.019625 -0.764955 -2.065934
v 1.878209 -0.764955 -2.065934
v 1.851659 -0.683450 -1.905004
v 1.989100 -0.888557 -2.233079
v 1.908734 -0.888557 -2.233079
v 1.989100 -0.916359 -2.292395
v 1.908734 -0.916359 -2.292395
v 1.989100 -1.116030 -2.198805
v 1.908734 -1.116030 -2.198805
v 2.092956 -0.515248 -1.561998
v 1.804878 -0.515249 -1.561998
v 2.092956 -0.506108 -1.542498
v 1.804878 -0.506108 -1.542498
v 2.092956 -0.581060 -1.531151
v 1.804878 -0.581060 -1.531151
v 2.092956 -0.571920 -1.511651
v 1.804878 -0.571920 -1.511650
v 1.879890 -0.501868 -1.543305
v 1.929580 -0.501868 -1.543305
v 1.979270 -0.501868 -1.543305
v 2.028960 -0.501867 -1.543305
v 2.028960 -0.511552 -1.563966
v 1.979270 -0.511552 -1.563966
v 1.929580 -0.511552 -1.563966
v 1.879890 -0.511552 -1.563966
v 1.879890 -0.648117 -1.781169
v 1.929580 -0.648117 -1.781169
v 1.979270 -0.648117 -1.781169
v 2.028960 -0.648117 -1.781169
v 1.916828 0.277104 0.135218
v 1.941893 0.277104 0.135218
v 1.966957 0.277104 0.135218
v 1.992022 0.277104 0.135218
v 1.925172 0.326187 0.316938
v 1.946792 0.354176 0.459713
v 1.962851 0.343697 0.406256
v 1.985916 0.316330 0.266658
v 1.870826 -0.501868 -1.543305
v 1.920516 -0.501868 -1.543305
v 1.970206 -0.501868 -1.543305
v 2.019895 -0.501867 -1.543305
v 2.019895 -0.511552 -1.563966
v 1.970206 -0.511552 -1.563966
v 1.920516 -0.511552 -1.563966
v 1.870826 -0.511552 -1.563966
v 1.870826 -0.648117 -1.781169
v 1.920516 -0.648117 -1.781169
v 1.970206 -0.648117 -1.781169
v 2.019895 -0.648117 -1.781169
v 1.907764 0.277104 0.135218
v 1.932829 0.277104 0.135218
v 1.957893 0.277104 0.135218
v 1.982958 0.277104 0.135218
v 1.916108 0.326187 0.316938
v 1.937728 0.354176 0.459713
v 1.953787 0.343697 0.406256
v 1.976851 0.316330 0.266658
v 1.921543 0.310199 0.235383
v 1.956322 0.310199 0.235383
v 1.934400 0.310199 0.235383
v 1.943464 0.310199 0.235383
v 1.987307 0.310199 0.235383
v 1.965386 0.310199 0.235383
v 1.912478 0.310199 0.235383
v 1.978243 0.310199 0.235383
v 2.012397 0.282318 0.479875
v 1.782397 0.282318 0.479875
v 2.012397 0.271793 0.457198
v 1.782397 0.271793 0.457198
v 2.012397 0.286169 0.436745
v 1.782397 0.286169 0.436745
v 2.012397 0.311070 0.438968
v 1.782397 0.311070 0.438968
v 2.012397 0.321595 0.461645
v 1.782397 0.321595 0.461645
v 2.012397 0.307219 0.482098
v 1.782397 0.307219 0.482098
v 2.012397 0.204444 0.320612
v 1.782397 0.204444 0.320612
v 2.012397 0.210881 0.296455
v 1.782397 0.210881 0.296455
v 2.012397 0.235020 0.289951
v 1.782397 0.235020 0.289951
v 2.012397 0.252722 0.307604
v 1.782397 0.252722 0.307604
v 2.012397 0.246285 0.331761
v 1.782397 0.246285 0.331761
v 2.012397 0.222146 0.338265
v 1.782397 0.222146 0.338265
v 2.108687 0.255195 0.390867
v 1.878687 0.255195 0.390867
v 2.108687 0.279349 0.384420
v 1.878687 0.279349 0.384420
v 2.108687 0.297010 0.402115
v 1.878687 0.297010 0.402115
v 2.108687 0.290516 0.426257
v 1.878687 0.290516 0.426257
v 2.108687 0.266361 0.432704
v 1.878687 0.266361 0.432704
v 2.108687 0.248701 0.415009
v 1.878687 0.248701 0.415009
v 2.108687 0.193567 0.285611
v 1.878687 0.193567 0.285611
v 2.108687 0.179789 0.264750
v 1.878687 0.179789 0.264750
v 2.108687 0.190966 0.242388
v 1.878687 0.190966 0.242388
v 2.108687 0.215921 0.240886
v 1.878687 0.215921 0.240886
v 2.108687 0.229699 0.261747
v 1.878687 0.229699 0.261747
v 2.108687 0.218522 0.284109
v 1.878687 0.218522 0.284109
v 1.769632 0.262744 0.470073
v 1.769632 0.264220 0.505624
v 1.769632 0.295218 0.423870
v 1.769632 0.329168 0.413219
v 1.769632 0.330644 0.448770
v 1.769632 0.298170 0.494973
v 1.769632 0.195686 0.300549
v 1.769632 0.174054 0.328800
v 1.769632 0.250215 0.285857
v 1.769632 0.283112 0.299416
v 1.769632 0.261480 0.327667
v 1.769632 0.206951 0.342359
v 2.121453 0.232961 0.368590
v 2.121453 0.268232 0.373281
v 2.121453 0.308126 0.413253
v 2.121453 0.312749 0.448534
v 2.121453 0.277478 0.443842
v 2.121453 0.237584 0.403871
v 2.121453 0.179496 0.313764
v 2.121453 0.172754 0.278827
v 2.121452 0.198002 0.228311
v 2.121452 0.229992 0.212733
v 2.121452 0.236735 0.247670
v 2.121453 0.211487 0.298186
v 1.723815 0.262744 0.470073
v 1.723815 0.264220 0.505624
v 1.723815 0.295218 0.423870
v 1.723815 0.329168 0.413219
v 1.723815 0.330644 0.448770
v 1.723815 0.298170 0.494973
v 1.723815 0.195686 0.300549
v 1.723815 0.174054 0.328800
v 1.723815 0.250215 0.285857
v 1.723815 0.283112 0.299416
v 1.723815 0.261480 0.327667
v 1.723815 0.206951 0.342359
v 2.167270 0.232961 0.368590
v 2.167270 0.268232 0.373281
v 2.167270 0.308126 0.413253
v 2.167270 0.312749 0.448534
v 2.167270 0.277478 0.443842
v 2.167270 0.237584 0.403871
v 2.167270 0.179496 0.313764
v 2.167269 0.172754 0.278827
v 2.167269 0.198002 0.228311
v 2.167269 0.229992 0.212733
v 2.167269 0.236735 0.247670
v 2.167269 0.211487 0.298186
v 1.693086 0.273277 0.467094
v 1.693086 0.273988 0.491726
v 1.693086 0.295983 0.434790
v 1.693086 0.319400 0.427117
v 1.693086 0.320111 0.451749
v 1.693086 0.297405 0.484053
v 1.693086 0.205683 0.305006
v 1.693086 0.190456 0.324381
v 1.693086 0.243810 0.294734
v 1.693086 0.266709 0.303835
v 1.693086 0.251482 0.323210
v 1.693086 0.213356 0.333483
v 2.197999 0.244961 0.380614
v 2.197999 0.269345 0.384171
v 2.197999 0.297239 0.412119
v 2.197999 0.300749 0.436510
v 2.197999 0.276365 0.432953
v 2.197999 0.248471 0.405005
v 2.197999 0.187091 0.298569
v 2.197999 0.182727 0.274316
v 2.197999 0.200381 0.238996
v 2.197999 0.222397 0.227928
v 2.197999 0.226761 0.252181
v 2.197999 0.209108 0.287501
v 2.128062 -1.106556 -2.189563
v 2.139154 -0.294690 -0.457469
v 1.948917 -1.110086 -2.197096
v 1.948917 -0.287246 -0.441586
v 2.261173 -1.095257 -2.165458
v 2.258955 -0.314463 -0.499654
v 2.355413 -1.078274 -2.129226
v 2.353291 -0.347923 -0.571040
v 2.413599 -1.061070 -2.092521
v 2.411577 -0.387489 -0.655454
v 2.404209 -0.597125 -1.102705
v 2.412715 -0.766737 -1.464568
v 2.354011 -0.595916 -1.100126
v 2.354503 -0.765100 -1.461077
v 2.259836 -0.624527 -1.161168
v 2.260079 -0.710119 -1.343776
v 2.533121 -0.908199 -1.766374
v 2.490410 -1.015072 -1.994385
v 2.524001 -0.965509 -1.888645
v 2.502897 -0.850253 -1.642748
v 2.456156 -0.806764 -1.549965
v 2.458508 -0.777896 -1.488376
v 2.442031 -0.757332 -1.444503
v 2.300872 -0.747826 -1.424223
v 2.251933 -0.663236 -1.243753
v 2.302109 -0.601367 -1.111756
v 2.391146 -0.599585 -1.107955
v 2.464714 -0.760803 -1.451908
v 2.398264 -0.579489 -1.065080
v 2.379243 -0.556368 -1.015752
v 2.044769 -0.423496 -0.732272
v 2.430776 -0.475684 -0.843615
v 2.429201 -0.430224 -0.746628
v 2.028248 -0.288012 -0.443221
v 2.079973 -0.712191 -1.348196
v 2.073850 -0.661979 -1.241071
v 2.069267 -0.624397 -1.160890
v 1.948917 -0.713652 -1.351312
v 1.948917 -0.663176 -1.243624
v 1.948917 -0.625397 -1.163023
v 2.189299 -0.623688 -1.159377
v 2.194901 -0.660444 -1.237797
v 2.202386 -0.709554 -1.342569
v 2.214369 -0.788172 -1.510299
v 2.279511 -0.785160 -1.503875
v 2.089775 -0.792575 -1.519693
v 1.948917 -0.794457 -1.523709
v 2.323849 -0.811675 -1.560443
v 2.382205 -0.816052 -1.569782
v 2.435399 -0.807253 -1.551008
v 2.243055 -0.976380 -1.911836
v 2.489702 -0.904246 -1.757941
v 2.326030 -0.964806 -1.887143
v 2.113240 -0.985009 -1.930246
v 1.948917 -0.987902 -1.936418
v 2.378855 -0.964526 -1.886546
v 2.448522 -0.938028 -1.830015
v 2.061290 -0.558980 -1.021323
v 1.948917 -0.559636 -1.022723
v 2.259665 -0.564228 -1.032522
v 2.179547 -0.559707 -1.022875
v 2.312063 -0.552079 -1.006602
v 2.365206 -0.555383 -1.013650
v 1.948917 -0.423441 -0.732155
v 2.259310 -0.439346 -0.766088
v 2.159351 -0.427199 -0.740172
v 2.332677 -0.450001 -0.788821
v 2.388392 -0.471436 -0.834552
v 2.028247 -0.094093 -0.534114
v 2.139154 -0.100771 -0.548363
v 2.128062 -0.912637 -2.280457
v 1.948917 -0.916167 -2.287990
v 2.261173 -0.901338 -2.256351
v 2.258955 -0.120544 -0.590548
v 2.355412 -0.884356 -2.220120
v 2.353291 -0.154004 -0.661933
v 2.490410 -0.821153 -2.085279
v 2.413599 -0.867151 -2.183415
v 2.411577 -0.193570 -0.746347
v 2.398264 -0.385570 -1.155974
v 2.404209 -0.403206 -1.193599
v 2.502896 -0.656334 -1.733642
v 2.533121 -0.714280 -1.857267
v 2.302109 -0.407448 -1.202650
v 2.259836 -0.430608 -1.252061
v 2.391146 -0.405666 -1.198848
v 2.354011 -0.401997 -1.191020
v 2.354503 -0.571181 -1.551971
v 2.412715 -0.572818 -1.555462
v 2.251933 -0.469317 -1.334646
v 2.260079 -0.516200 -1.434669
v 2.300871 -0.553907 -1.515117
v 2.524001 -0.771590 -1.979538
v 2.458508 -0.583977 -1.579269
v 2.456156 -0.612845 -1.640859
v 2.464714 -0.566884 -1.542802
v 2.442031 -0.563413 -1.535397
v 2.379243 -0.362449 -1.106646
v 2.061290 -0.365061 -1.112217
v 2.044769 -0.229577 -0.823166
v 2.430776 -0.281765 -0.934509
v 2.429201 -0.236306 -0.837522
v 2.502897 -0.753294 -1.688195
v 2.243055 -0.782461 -2.002729
v 2.279511 -0.591241 -1.594768
v 2.259665 -0.370309 -1.123415
v 2.089775 -0.598656 -1.610587
v 2.079973 -0.518272 -1.439090
v 2.073849 -0.468060 -1.331964
v 2.069267 -0.430478 -1.251783
v 1.948917 -0.600538 -1.614603
v 1.948917 -0.519733 -1.442206
v 1.948917 -0.469257 -1.334518
v 1.948917 -0.431478 -1.253916
v 2.179547 -0.365788 -1.113769
v 2.189299 -0.429769 -1.250270
v 2.194901 -0.466526 -1.328690
v 2.202386 -0.515635 -1.433463
v 2.323849 -0.617756 -1.651337
v 2.382205 -0.622133 -1.660676
v 2.489702 -0.710327 -1.848834
v 2.214369 -0.594253 -1.601193
v 2.326030 -0.770887 -1.978037
v 2.113240 -0.791090 -2.021140
v 1.948917 -0.793983 -2.027311
v 2.378855 -0.770607 -1.977440
v 2.448522 -0.744109 -1.920908
v 2.435399 -0.613334 -1.641902
v 2.312063 -0.358160 -1.097496
v 2.365206 -0.361464 -1.104543
v 2.456156 -0.709804 -1.595412
v 2.259310 -0.245427 -0.856982
v 2.159351 -0.233280 -0.831066
v 2.332676 -0.256082 -0.879714
v 2.388391 -0.277517 -0.925445
v 1.769772 -1.106556 -2.189563
v 1.758680 -0.294691 -0.457469
v 1.636661 -1.095257 -2.165457
v 1.638880 -0.314463 -0.499654
v 1.542422 -1.078275 -2.129226
v 1.544544 -0.347923 -0.571040
v 1.484235 -1.061070 -2.092521
v 1.486257 -0.387490 -0.655454
v 1.493626 -0.597125 -1.102705
v 1.485119 -0.766737 -1.464568
v 1.543823 -0.595916 -1.100126
v 1.543332 -0.765100 -1.461077
v 1.637998 -0.624527 -1.161168
v 1.637755 -0.710119 -1.343776
v 1.364713 -0.908199 -1.766374
v 1.407424 -1.015072 -1.994385
v 1.373833 -0.965510 -1.888644
v 1.394938 -0.850253 -1.642748
v 1.441678 -0.806764 -1.549965
v 1.439326 -0.777896 -1.488376
v 1.455803 -0.757332 -1.444503
v 1.596963 -0.747827 -1.424223
v 1.645901 -0.663237 -1.243753
v 1.595725 -0.601367 -1.111756
v 1.506688 -0.599585 -1.107955
v 1.433121 -0.760803 -1.451908
v 1.499570 -0.579489 -1.065080
v 1.518591 -0.556368 -1.015752
v 1.853066 -0.423496 -0.732272
v 1.467059 -0.475684 -0.843615
v 1.468634 -0.430225 -0.746628
v 1.869587 -0.288012 -0.443221
v 1.817862 -0.712191 -1.348196
v 1.823985 -0.661979 -1.241071
v 1.828568 -0.624397 -1.160890
v 1.708536 -0.623688 -1.159376
v 1.702933 -0.660445 -1.237796
v 1.695448 -0.709553 -1.342569
v 1.683465 -0.788172 -1.510299
v 1.618323 -0.785161 -1.503875
v 1.808060 -0.792575 -1.519693
v 1.573985 -0.811675 -1.560443
v 1.515629 -0.816053 -1.569782
v 1.462435 -0.807253 -1.551008
v 1.654780 -0.976380 -1.911836
v 1.408132 -0.904246 -1.757940
v 1.571804 -0.964806 -1.887143
v 1.784594 -0.985009 -1.930246
v 1.518979 -0.964526 -1.886546
v 1.449312 -0.938029 -1.830014
v 1.836545 -0.558980 -1.021323
v 1.638170 -0.564229 -1.032522
v 1.718287 -0.559707 -1.022875
v 1.585772 -0.552079 -1.006602
v 1.532628 -0.555383 -1.013650
v 1.638525 -0.439346 -0.766088
v 1.738484 -0.427199 -0.740172
v 1.565158 -0.450001 -0.788821
v 1.509443 -0.471436 -0.834552
v 1.869587 -0.094093 -0.534114
v 1.758680 -0.100772 -0.548363
v 1.769772 -0.912637 -2.280457
v 1.636661 -0.901338 -2.256351
v 1.638879 -0.120545 -0.590548
v 1.542422 -0.884356 -2.220120
v 1.544544 -0.154004 -0.661933
v 1.407424 -0.821153 -2.085279
v 1.484235 -0.867151 -2.183415
v 1.486257 -0.193571 -0.746347
v 1.499570 -0.385570 -1.155974
v 1.493626 -0.403206 -1.193598
v 1.394938 -0.656334 -1.733642
v 1.364713 -0.714280 -1.857267
v 1.595725 -0.407448 -1.202649
v 1.637998 -0.430608 -1.252061
v 1.506688 -0.405666 -1.198848
v 1.543823 -0.401997 -1.191019
v 1.543332 -0.571182 -1.551970
v 1.485119 -0.572818 -1.555462
v 1.645901 -0.469318 -1.334646
v 1.637755 -0.516200 -1.434669
v 1.596963 -0.553908 -1.515117
v 1.373833 -0.771591 -1.979538
v 1.439326 -0.583977 -1.579269
v 1.441678 -0.612845 -1.640858
v 1.433121 -0.566884 -1.542801
v 1.455803 -0.563413 -1.535397
v 1.518591 -0.362449 -1.106646
v 1.836545 -0.365061 -1.112217
v 1.853066 -0.229577 -0.823166
v 1.467059 -0.281765 -0.934508
v 1.468634 -0.236306 -0.837521
v 1.654780 -0.782461 -2.002729
v 1.618323 -0.591242 -1.594768
v 1.638170 -0.370310 -1.123415
v 1.808060 -0.598656 -1.610587
v 1.817862 -0.518272 -1.439090
v 1.823985 -0.468060 -1.331964
v 1.828568 -0.430478 -1.251783
v 1.718287 -0.365788 -1.113769
v 1.708536 -0.429769 -1.250270
v 1.702933 -0.466526 -1.328690
v 1.695448 -0.515635 -1.433462
v 1.573985 -0.617756 -1.651337
v 1.515629 -0.622134 -1.660675
v 1.408132 -0.710327 -1.848834
v 1.683465 -0.594253 -1.601193
v 1.571804 -0.770887 -1.978037
v 1.784594 -0.791090 -2.021140
v 1.518979 -0.770607 -1.977439
v 1.449312 -0.744110 -1.920908
v 1.462435 -0.613334 -1.641902
v 1.585772 -0.358160 -1.097495
v 1.532628 -0.361464 -1.104543
v 1.638525 -0.245427 -0.856982
v 1.738484 -0.233280 -0.831066
v 1.565158 -0.256082 -0.879714
v 1.509443 -0.277517 -0.925445
v 2.061290 -0.322510 -1.132161
v 2.044769 -0.187026 -0.843110
v 2.028247 -0.051542 -0.554058
v 2.069267 -0.387927 -1.271728
v 1.836545 -0.322510 -1.132161
v 1.853066 -0.187026 -0.843110
v 1.869587 -0.051542 -0.554058
v 1.828568 -0.387928 -1.271728
v 2.464714 -0.663843 -1.497355
v 2.458508 -0.680936 -1.533823
v 2.490410 -0.918112 -2.039832
v 2.413599 -0.964111 -2.137968
v 2.412715 -0.669777 -1.510015
v 2.442031 -0.660372 -1.489950
v 2.355412 -0.981315 -2.174673
v 2.300872 -0.650867 -1.469670
v 2.354503 -0.668141 -1.506524
v 2.353291 -0.250964 -0.616487
v 2.411577 -0.290530 -0.700901
v 2.259836 -0.527568 -1.206614
v 2.251933 -0.566277 -1.289200
v 2.398264 -0.482530 -1.110527
v 2.404209 -0.500165 -1.148152
v 2.354011 -0.498956 -1.145573
v 2.302109 -0.504407 -1.157203
v 1.948917 -1.013127 -2.242543
v 2.533121 -0.811239 -1.811821
v 2.391146 -0.502626 -1.153401
v 2.379243 -0.459409 -1.061199
v 2.028248 -0.150107 -0.507859
v 2.139154 -0.197731 -0.502916
v 2.260079 -0.613159 -1.389222
v 2.128062 -1.009596 -2.235010
v 2.430776 -0.378725 -0.889062
v 2.261173 -0.998297 -2.210905
v 2.429201 -0.333265 -0.792075
v 2.524001 -0.868550 -1.934091
v 2.258955 -0.217504 -0.545101
v 1.441678 -0.709804 -1.595411
v 1.394938 -0.753294 -1.688195
v 1.433121 -0.663843 -1.497355
v 1.439326 -0.680936 -1.533822
v 1.407424 -0.918113 -2.039832
v 1.484235 -0.964111 -2.137968
v 1.485119 -0.669778 -1.510015
v 1.455803 -0.660373 -1.489950
v 1.542422 -0.981315 -2.174673
v 1.596963 -0.650867 -1.469670
v 1.543332 -0.668141 -1.506524
v 1.544544 -0.250964 -0.616486
v 1.486257 -0.290530 -0.700900
v 1.637998 -0.527568 -1.206614
v 1.645901 -0.566277 -1.289200
v 1.499570 -0.482530 -1.110527
v 1.493626 -0.500165 -1.148152
v 1.543823 -0.498956 -1.145573
v 1.595725 -0.504408 -1.157203
v 1.364713 -0.811239 -1.811820
v 1.506688 -0.502626 -1.153401
v 1.518591 -0.459409 -1.061199
v 1.869587 -0.150107 -0.507859
v 1.758680 -0.197731 -0.502916
v 1.637755 -0.613160 -1.389222
v 1.769772 -1.009596 -2.235010
v 1.467059 -0.378725 -0.889062
v 1.636661 -0.998297 -2.210904
v 1.468634 -0.333265 -0.792075
v 1.373833 -0.868550 -1.934091
v 1.638879 -0.217504 -0.545101
v 1.976355 0.361208 0.729694
v 2.012534 0.247333 0.151283
v 2.012534 0.221713 0.163292
v 1.885301 0.247333 0.151283
v 2.012534 0.273349 0.139089
v 1.885301 0.221713 0.163292
v 1.885301 0.273349 0.139089
v 1.974901 -0.159113 -0.422058
v 1.922933 -0.159113 -0.422058
v 1.948917 -0.226721 -0.469955
v 1.922933 0.203598 0.172503
v 1.974901 0.203598 0.172503
v 2.011868 0.161693 0.236495
v 1.994734 0.333083 0.509200
v 1.994734 0.282392 0.517803
v 1.903101 0.333083 0.509200
v 1.994734 0.361182 0.503199
v 1.903101 0.282392 0.517803
v 1.903101 0.361182 0.503199
v 1.885966 0.161693 0.236495
v 1.930203 0.248587 0.511557
v 1.967631 0.248587 0.511557
v 1.976355 0.304612 0.715487
v 1.921480 0.361208 0.729694
v 1.976355 0.417506 0.715792
v 1.921480 0.304612 0.715487
v 1.921480 0.417506 0.715792
v 1.937710 0.254461 0.674366
v 1.960124 0.254461 0.674366
v 2.011868 0.300321 0.216784
v 1.922933 0.141965 0.241375
v 1.974901 0.141965 0.241375
v 1.885966 0.300321 0.216784
v 2.011868 0.272222 0.222785
v 1.885966 0.272222 0.222785
v 2.007287 0.222707 0.383067
v 1.972758 0.202980 0.387948
v 1.890548 0.330751 0.359991
v 1.890548 0.302653 0.365993
v 1.890548 0.222707 0.383067
v 2.007287 0.330751 0.359991
v 1.925076 0.202980 0.387948
v 2.007287 0.302653 0.365993
v 2.026932 0.383577 0.610427
v 1.967513 0.232715 0.590677
v 1.994444 0.283502 0.606685
v 1.870903 0.336179 0.613067
v 1.903390 0.283502 0.606685
v 1.930322 0.232715 0.590677
v 1.870903 0.383577 0.610427
v 2.026932 0.336179 0.613067
v 1.994444 0.488824 0.601378
v 1.990008 0.448264 0.531023
v 1.907827 0.448264 0.531023
v 1.976355 0.477526 0.678316
v 1.921480 0.477526 0.678316
v 1.903390 0.488824 0.601378
v 1.885966 0.149857 0.277838
v 2.011868 0.306043 0.243715
v 1.923370 0.130129 0.282719
v 2.011868 0.277944 0.249716
v 2.011868 0.149857 0.277838
v 1.974465 0.130129 0.282719
v 1.885966 0.306043 0.243715
v 1.885966 0.277944 0.249716
v 2.002240 0.260065 0.448963
v 1.970697 0.233299 0.448281
v 1.895594 0.345967 0.431596
v 1.895594 0.317868 0.437596
v 1.895594 0.260065 0.448963
v 2.002240 0.345967 0.431596
v 1.927137 0.233299 0.448281
v 2.002240 0.317868 0.437596
v 2.011868 0.157298 0.302360
v 1.974523 0.137571 0.307240
v 1.885966 0.310223 0.263383
v 1.885966 0.282124 0.269384
v 1.885966 0.157298 0.302360
v 2.011868 0.310223 0.263383
v 1.923311 0.137571 0.307240
v 2.011868 0.282124 0.269384
v 1.989100 -1.061060 -2.081530
v 1.908734 -1.061060 -2.081530
vn -0.5774 0.2777 -0.7678
vn -0.5774 0.7678 0.2777
vn 0.5773 0.7678 0.2777
vn 0.5774 0.2777 -0.7678
vn -0.5774 -0.7678 -0.2777
vn 0.5774 -0.7678 -0.2777
vn 0.5774 -0.2777 0.7678
vn -0.5774 -0.2777 0.7678
vn -0.0000 0.3402 -0.9404
vn -0.0000 -0.9404 -0.3402
vn -0.0000 0.5982 -0.8013
vn -0.0000 0.6796 -0.7336
vn -0.0000 0.8824 -0.4705
vn -0.0000 0.9257 -0.3783
vn -0.0000 0.9477 -0.3191
vn -0.0000 0.8777 -0.4793
vn -0.0000 0.8466 -0.5323
vn -0.0000 0.9813 -0.1924
vn -0.0000 0.9672 -0.2541
vn -0.0000 0.9675 -0.2530
vn -0.0000 0.9063 -0.4227
vn -0.0000 0.9669 -0.2553
vn -0.0000 0.9678 -0.2518
vn -0.0000 0.9303 -0.3669
vn -0.0000 0.9294 -0.3691
vn -0.0000 0.9300 -0.3676
vn -0.0000 0.9297 -0.3683
vn 0.6100 -0.4557 0.6483
vn 0.5906 -0.4640 0.6602
vn 0.1653 -0.9496 -0.2662
vn 0.6100 -0.7893 -0.0705
vn 0.1653 -0.5721 -0.8034
vn 0.6100 -0.3336 -0.7188
vn 0.5906 0.4640 -0.6602
vn 0.6100 0.4557 -0.6483
vn 0.1653 0.9496 0.2662
vn 0.6100 0.7893 0.0705
vn 0.1653 0.5589 0.8126
vn 0.5906 0.7792 -0.2099
vn 0.4234 0.8747 -0.2357
vn 0.3493 0.5854 0.7316
vn 0.1653 0.5721 0.8034
vn 0.6100 0.3336 0.7188
vn 0.6100 -0.7651 0.2062
vn 0.5906 -0.7792 0.2099
vn 0.1653 -0.5589 -0.8126
vn 0.6100 -0.5611 -0.5595
vn 0.1653 0.0750 -0.9834
vn 0.6100 0.2040 -0.7657
vn 0.6100 0.7651 -0.2062
vn 0.6100 0.5611 0.5595
vn 0.3493 0.9182 0.1871
vn 0.3493 0.4870 0.8005
vn 0.1653 -0.0751 0.9834
vn 0.6100 -0.2040 0.7657
vn -0.5906 -0.5700 -0.5711
vn -0.6100 -0.5598 -0.5609
vn -0.6100 0.2058 -0.7652
vn -0.1653 0.4263 -0.8893
vn -0.6100 0.7656 -0.2043
vn -0.1653 0.8902 -0.4246
vn -0.6100 0.5598 0.5609
vn -0.5906 0.5700 0.5711
vn -0.6100 -0.2058 0.7652
vn -0.1653 -0.4263 0.8893
vn -0.6100 -0.7656 0.2043
vn -0.1653 -0.8902 0.4246
vn -0.3493 0.3430 -0.8720
vn -0.4234 -0.6400 -0.6412
vn -0.5906 -0.3608 0.7218
vn -0.6100 -0.3543 0.7088
vn -0.6100 -0.7910 0.0476
vn -0.1653 -0.9787 -0.1221
vn -0.6100 -0.4367 -0.6612
vn -0.1653 -0.6851 -0.7094
vn -0.6100 0.3543 -0.7088
vn -0.5906 0.3608 -0.7218
vn -0.6100 0.7910 -0.0476
vn -0.1653 0.9787 0.1221
vn -0.6100 0.4367 0.6612
vn -0.1653 0.6851 0.7094
vn -0.3493 -0.6005 -0.7193
vn -0.3493 -0.9358 -0.0486
vn -0.2265 0.9405 -0.2534
vn -0.1428 0.5630 0.8140
vn -0.3493 -0.3430 0.8720
vn -0.3493 -0.8727 0.3413
vn 0.1428 -0.8944 0.4238
vn 0.1428 -0.4256 0.8936
vn 0.3493 -0.4870 -0.8005
vn 0.3493 -0.9182 -0.1871
vn -0.1428 -0.9537 -0.2647
vn -0.1428 -0.5721 -0.8077
vn -0.3493 0.6005 0.7193
vn -0.4234 -0.4050 0.8104
vn 0.2265 -0.4355 0.8712
vn 0.1428 0.6857 0.7137
vn -0.3493 0.9358 0.0486
vn 0.4234 0.5209 -0.7412
vn 0.3493 -0.5854 -0.7316
vn 0.3493 0.1386 -0.9267
vn 0.4234 -0.5209 0.7412
vn -0.4234 0.6400 0.6412
vn -0.4234 0.4050 -0.8104
vn 0.3493 -0.1386 0.9267
vn -0.3493 0.8727 -0.3413
vn 0.4234 -0.8747 0.2357
vn 0.1428 0.4256 -0.8936
vn 0.1428 0.8944 -0.4238
vn 0.7443 0.5862 -0.3201
vn 0.7443 0.3213 -0.5855
vn 0.1428 -0.6857 -0.7137
vn 0.2265 0.4354 -0.8712
vn 0.7495 0.2960 -0.5922
vn 0.7443 -0.4896 -0.4543
vn -0.2265 -0.5601 0.7969
vn -0.1428 0.5721 0.8077
vn -0.7443 0.4166 0.5220
vn -0.7495 -0.3807 0.5416
vn 0.2265 -0.6881 -0.6894
vn 0.7495 -0.4677 -0.4686
vn -0.2265 0.5601 -0.7969
vn -0.1428 -0.0778 0.9867
vn -0.1428 0.9537 0.2647
vn 0.1428 -0.9824 -0.1200
vn -0.2265 -0.9405 0.2534
vn -0.1428 -0.5630 -0.8140
vn 0.1428 0.9824 0.1200
vn 0.2265 0.6881 0.6894
vn -0.1428 0.0778 -0.9867
vn -0.7443 -0.6323 -0.2152
vn -0.7443 0.6323 0.2152
vn -0.7495 0.3807 -0.5416
vn -0.7443 -0.4166 -0.5220
vn -0.7443 -0.3478 -0.5702
vn -0.7495 -0.6392 0.1722
vn -0.7443 -0.0143 0.6677
vn -0.7443 0.3478 0.5702
vn -0.7495 0.6392 -0.1722
vn -0.7443 0.0143 -0.6677
vn 0.7495 0.4677 0.4686
vn 0.7443 -0.3213 0.5855
vn 0.7443 -0.5862 0.3201
vn 0.7495 -0.2960 0.5922
vn 0.7443 -0.6572 -0.1189
vn 0.7443 0.6572 0.1189
vn 0.7443 0.4896 0.4543
vn -0.0000 -0.9055 0.4244
vn 0.5851 0.1288 0.8006
vn 0.7526 0.2795 0.5962
vn 0.9998 0.0087 0.0186
vn 0.9036 -0.3627 0.2281
vn -0.0000 0.9055 -0.4244
vn 0.9993 0.0154 0.0328
vn 0.9987 0.0219 0.0468
vn 0.7062 0.6558 -0.2670
vn 0.7031 0.6542 -0.2786
vn -0.7251 -0.2757 -0.6310
vn -0.9987 0.0219 0.0468
vn -0.7062 0.6558 -0.2670
vn -0.5884 0.2923 -0.7539
vn 0.9483 0.1347 0.2873
vn 0.9807 0.0829 0.1769
vn 0.9956 -0.0397 -0.0847
vn 0.8598 0.2167 0.4624
vn 0.7043 -0.3013 -0.6428
vn 0.9012 -0.1840 -0.3925
vn -0.1500 0.4196 0.8952
vn -0.2865 0.4066 0.8675
vn 0.4838 -0.3714 -0.7924
vn 0.3501 0.3976 0.8482
vn 0.7801 0.2656 0.5665
vn 0.9338 0.1519 0.3241
vn 0.7540 0.2788 0.5948
vn 1.0000 -0.0027 -0.0058
vn 0.9313 -0.1546 -0.3298
vn 0.8749 -0.2055 -0.4385
vn 0.9716 0.1005 0.2144
vn 0.5456 -0.3557 -0.7588
vn 0.0069 -0.4244 -0.9054
vn 0.9972 0.0319 0.0680
vn 0.0943 -0.4225 -0.9014
vn 0.9994 0.0151 0.0322
vn 0.2531 0.4106 0.8760
vn 0.9684 0.1058 0.2258
vn -0.0000 -0.4244 -0.9055
vn 0.1216 -0.4213 -0.8988
vn 0.9922 -0.0529 -0.1129
vn 0.2950 -0.4055 -0.8652
vn 0.9956 0.0398 0.0850
vn 0.9849 -0.0734 -0.1565
vn 0.5086 0.3654 0.7796
vn -0.7031 0.6542 -0.2786
vn -0.7024 0.6505 -0.2890
vn 0.7024 0.6505 -0.2890
vn -0.9483 0.1347 0.2873
vn -0.9807 0.0829 0.1769
vn -0.9956 -0.0397 -0.0847
vn -0.8598 0.2167 0.4624
vn -0.7043 -0.3013 -0.6428
vn -0.9012 -0.1840 -0.3925
vn 0.1500 0.4196 0.8952
vn 0.2865 0.4066 0.8675
vn -0.4838 -0.3714 -0.7924
vn -0.3501 0.3976 0.8482
vn -0.7801 0.2656 0.5665
vn -0.9338 0.1519 0.3241
vn -0.7540 0.2788 0.5948
vn -1.0000 -0.0027 -0.0058
vn -0.9313 -0.1546 -0.3298
vn -0.8749 -0.2055 -0.4385
vn -0.9716 0.1005 0.2144
vn -0.5456 -0.3557 -0.7588
vn -0.0069 -0.4244 -0.9054
vn -0.9972 0.0319 0.0680
vn -0.0943 -0.4225 -0.9014
vn -0.9994 0.0151 0.0322
vn -0.2531 0.4106 0.8760
vn -0.5851 0.1288 0.8006
vn -0.7526 0.2795 0.5962
vn -0.9684 0.1058 0.2258
vn -0.1216 -0.4213 -0.8988
vn -0.9922 -0.0529 -0.1129
vn -0.2950 -0.4055 -0.8652
vn -0.9956 0.0398 0.0850
vn -0.9849 -0.0734 -0.1565
vn -0.5086 0.3654 0.7796
vn 0.5884 0.2923 -0.7539
vn 0.7082 0.7007 -0.0868
vn -0.7082 0.7007 -0.0868
vn -0.7769 0.4382 -0.4522
vn 0.7769 0.4382 -0.4522
vn 0.7251 -0.2757 -0.6310
vn -0.9993 0.0154 0.0328
vn 0.4009 -0.7316 0.5514
vn 0.3314 -0.8084 0.4865
vn -0.0818 0.4230 0.9024
vn -0.0000 0.0981 0.9952
vn 0.0818 0.4230 0.9024
vn -0.9073 -0.3598 0.2176
vn -0.3282 -0.8702 0.3675
vn -0.4452 -0.8919 0.0798
vn -0.9280 -0.3716 0.0253
vn 0.3282 -0.8702 0.3675
vn 0.9073 -0.3598 0.2176
vn 0.9280 -0.3716 0.0253
vn 0.4452 -0.8919 0.0798
vn -0.9906 0.1285 0.0472
vn -0.5256 0.3354 0.7818
vn -0.4618 0.7219 0.5153
vn -0.5891 0.8010 -0.1065
vn -0.4009 -0.7316 0.5514
vn -0.3314 -0.8084 0.4865
vn -0.9036 -0.3627 0.2281
vn -0.9998 0.0087 0.0186
vn -0.0000 0.4244 0.9055
vn -0.4716 -0.8805 0.0474
vn 0.4716 -0.8805 0.0474
vn 0.4093 -0.7829 0.4686
vn -0.4093 -0.7829 0.4686
vn -0.9025 -0.4200 0.0951
vn -0.5138 -0.4758 0.7139
vn 0.9025 -0.4200 0.0951
vn 0.5138 -0.4758 0.7139
vn -0.9836 -0.1584 0.0864
vn -0.5132 -0.0598 0.8562
vn 0.9963 0.0171 0.0842
vn 0.9954 -0.0695 -0.0661
vn -0.9963 0.0171 0.0842
vn -0.9954 -0.0695 -0.0661
vn 0.6843 0.6907 -0.2337
vn -0.6843 0.6907 -0.2337
vn -0.6923 0.6958 -0.1911
vn 0.6923 0.6958 -0.1911
vn 0.5132 -0.0598 0.8562
vn -0.0000 -0.4016 -0.9158
vn 0.5256 0.3354 0.7818
vn 0.9836 -0.1584 0.0864
vn 0.9906 0.1285 0.0472
vn -1.0000 0.0023 0.0088
vn -0.9425 -0.2575 -0.2132
vn -0.7817 -0.5350 -0.3205
vn -1.0000 0.0011 0.0042
vn 0.9425 -0.2575 -0.2132
vn 1.0000 0.0023 0.0088
vn 1.0000 0.0011 0.0042
vn 0.7817 -0.5350 -0.3205
vn -0.1445 -0.7457 -0.6505
vn 0.1445 -0.7457 -0.6505
vn 0.1838 -0.8721 -0.4534
vn -0.1838 -0.8721 -0.4534
vn 0.7120 0.6900 -0.1298
vn -0.7120 0.6900 -0.1298
vn -0.7084 0.6977 -0.1065
vn 0.7084 0.6977 -0.1065
vn -0.9997 0.0052 0.0225
vn -0.8311 -0.4806 0.2796
vn -0.8729 -0.3827 0.3026
vn -0.9983 0.0123 0.0567
vn 0.8311 -0.4806 0.2796
vn 0.9997 0.0052 0.0225
vn 0.9983 0.0123 0.0567
vn 0.8729 -0.3827 0.3026
vn -0.2388 -0.8592 0.4524
vn 0.2388 -0.8592 0.4524
vn 0.2613 -0.7985 0.5423
vn -0.2613 -0.7985 0.5423
vn 0.5060 0.5390 -0.6734
vn 0.5891 0.8010 -0.1065
vn 0.4618 0.7219 0.5153
vn -0.5060 0.5390 -0.6734
vn -0.2317 -0.9727 0.0158
vn -0.8153 -0.5790 -0.0080
vn 0.8153 -0.5790 -0.0080
vn 0.2317 -0.9727 0.0158
vn 0.7071 0.6917 -0.1470
vn 1.0000 -0.0000 -0.0000
vn -1.0000 -0.0000 -0.0000
vn -0.7071 0.6917 -0.1470
vt 0.975192 0.154555
vt 0.978942 0.208305
vt 0.972692 0.080805
vt 0.927692 0.042055
vt 0.248418 0.176840
vt 0.185555 0.186849
vt 0.176436 0.051178
vt 0.240889 0.038119
vt 0.274810 0.663070
vt 0.217518 0.662384
vt 0.212610 0.589365
vt 0.270757 0.588409
vt 0.209791 0.547415
vt 0.268429 0.545516
vt 0.206023 0.491369
vt 0.265319 0.488209
vt 0.328571 0.394146
vt 0.328804 0.486382
vt 0.260339 0.396466
vt 0.328949 0.543997
vt 0.329057 0.587121
vt 0.178073 0.490794
vt 0.182154 0.544298
vt 0.178437 0.588492
vt 0.178693 0.657320
vt 0.199993 0.401644
vt 0.168443 0.405161
vt 0.158203 0.447802
vt 0.146888 0.374950
vt 0.132172 0.428150
vt 0.118605 0.370024
vt 0.086127 0.230875
vt 0.066275 0.269487
vt 0.049483 0.199599
vt 0.065614 0.142985
vt 0.103966 0.426353
vt 0.092861 0.380134
vt 0.119801 0.200545
vt 0.145391 0.200161
vt 0.328016 0.173338
vt 0.082806 0.380717
vt 0.081750 0.413672
vt 0.078793 0.433190
vt 0.089791 0.437124
vt 0.060038 0.331133
vt 0.045230 0.265028
vt 0.327664 0.033870
vt 0.130831 0.070677
vt 0.102692 0.090386
vt 0.153344 0.671252
vt 0.158024 0.614980
vt 0.127589 0.667546
vt 0.132896 0.621266
vt 0.108574 0.619947
vt 0.114895 0.617123
vt 0.111505 0.640070
vt 0.143651 0.787795
vt 0.116598 0.763396
vt 0.179223 0.799868
vt 0.227683 0.813611
vt 0.283202 0.817698
vt 0.976442 0.017055
vt 0.120786 0.666438
vt 0.291595 0.972327
vt 0.237848 0.964839
vt 0.179754 0.942415
vt 0.133957 0.904337
vt 0.105607 0.859245
vt 0.096053 0.758598
vt 0.096947 0.810486
vt 0.249981 0.176833
vt 0.243151 0.038075
vt 0.178633 0.050810
vt 0.187069 0.186525
vt 0.273925 0.663190
vt 0.270248 0.588509
vt 0.212097 0.589172
vt 0.216638 0.662215
vt 0.268136 0.545605
vt 0.209489 0.547209
vt 0.265314 0.488283
vt 0.206004 0.491144
vt 0.260796 0.396517
vt 0.178056 0.490429
vt 0.181868 0.543953
vt 0.177928 0.588128
vt 0.177838 0.656956
vt 0.200425 0.401391
vt 0.168858 0.404748
vt 0.147455 0.374429
vt 0.158403 0.447338
vt 0.119197 0.369362
vt 0.132471 0.427555
vt 0.087421 0.230051
vt 0.067350 0.142058
vt 0.050934 0.198590
vt 0.067374 0.268562
vt 0.093402 0.379341
vt 0.104275 0.425616
vt 0.121247 0.199890
vt 0.146838 0.199635
vt 0.083345 0.379874
vt 0.082123 0.412822
vt 0.079068 0.432326
vt 0.090046 0.436315
vt 0.060827 0.330176
vt 0.046351 0.263997
vt 0.132930 0.070080
vt 0.104693 0.089647
vt 0.157383 0.614513
vt 0.152419 0.670760
vt 0.132223 0.620672
vt 0.126684 0.666925
vt 0.107909 0.619231
vt 0.110738 0.639368
vt 0.114244 0.616438
vt 0.142140 0.787252
vt 0.115210 0.762718
vt 0.177651 0.799504
vt 0.226041 0.813492
vt 0.281539 0.817858
vt 0.119886 0.665783
vt 0.289153 0.972527
vt 0.235444 0.964769
vt 0.177464 0.942053
vt 0.131860 0.903745
vt 0.103737 0.858510
vt 0.094690 0.757817
vt 0.095322 0.809709
vt 0.840604 0.751575
vt 0.931963 0.751575
vt 0.925532 0.814284
vt 0.847034 0.814284
vt 0.831786 0.492994
vt 0.940780 0.492994
vt 0.940210 0.563447
vt 0.832356 0.563447
vt 0.832356 0.604258
vt 0.940210 0.604258
vt 0.936285 0.688866
vt 0.836281 0.688866
vt 0.940210 0.587033
vt 0.832356 0.587033
s 1
usemtl Violin
f 16/1/1 18/1/2 17/1/3 15/1/4
f 20/1/5 19/1/6 21/1/7 22/1/8
f 18/1/2 16/1/1 20/1/5 22/1/8
f 16/1/1 15/1/4 19/1/6 20/1/5
f 15/1/4 17/1/3 21/1/7 19/1/6
f 17/1/3 18/1/2 22/1/8 21/1/7
f 12/2/9 11/2/9 13/2/10 14/2/10
f 10/2/11 9/2/11 11/2/9 12/2/9
f 2/3/12 1/3/12 9/3/11 10/3/11
f 6/3/13 7/3/13 8/3/14 5/3/14
f 1/3/12 2/3/12 7/3/13 6/3/13
f 5/3/14 8/3/14 4/3/15 3/3/15
f 29/1/16 32/1/17 52/1/17 49/1/16
f 41/1/18 68/1/19 64/1/20 61/1/18
f 23/1/21 30/1/16 50/1/16 43/1/21
f 30/1/16 31/1/17 51/1/17 50/1/16
f 42/1/18 67/1/22 70/1/23 62/1/18
f 35/1/24 23/1/21 43/1/21 55/1/25
f 24/1/21 29/1/16 49/1/16 44/1/21
f 36/1/26 24/1/21 44/1/21 56/1/27
f 25/1/21 28/1/16 48/1/16 45/1/21
f 27/1/16 34/1/17 54/1/17 47/1/16
f 37/1/27 25/1/21 45/1/21 57/1/26
f 26/1/21 27/1/16 47/1/16 46/1/21
f 38/1/25 26/1/21 46/1/21 58/1/24
f 39/1/18 63/1/23 69/1/22 59/1/18
f 28/1/16 33/1/17 53/1/17 48/1/16
f 40/1/18 66/1/20 65/1/19 60/1/18
f 69/1/22 63/1/23 35/1/24 55/1/25
f 70/1/23 67/1/22 38/1/25 58/1/24
f 64/1/20 68/1/19 37/1/27 57/1/26
f 65/1/19 66/1/20 36/1/26 56/1/27
f 71/3/28 72/3/29 74/3/30 73/3/31
f 73/3/31 74/3/30 76/3/32 75/3/33
f 75/3/33 76/3/32 78/3/34 77/3/35
f 77/3/35 78/3/34 80/3/36 79/3/37
f 92/3/38 90/3/39 128/3/40 129/3/41
f 79/3/37 80/3/36 82/3/42 81/3/43
f 81/3/43 82/3/42 72/3/29 71/3/28
f 71/3/28 73/3/31 75/3/33 77/3/35 79/3/37 81/3/43
f 83/3/44 84/3/45 86/3/46 85/3/47
f 85/3/47 86/3/46 88/3/48 87/3/49
f 87/3/49 88/3/48 90/3/39 89/3/50
f 89/3/50 90/3/39 92/3/38 91/3/51
f 82/3/42 80/3/36 123/3/52 124/3/53
f 91/3/51 92/3/38 94/3/54 93/3/55
f 93/3/55 94/3/54 84/3/45 83/3/44
f 83/3/44 85/3/47 87/3/49 89/3/50 91/3/51 93/3/55
f 95/3/56 96/3/57 98/3/58 97/3/59
f 97/3/59 98/3/58 100/3/60 99/3/61
f 99/3/61 100/3/60 102/3/62 101/3/63
f 101/3/63 102/3/62 104/3/64 103/3/65
f 98/3/58 96/3/57 106/3/66 104/3/64 102/3/62 100/3/60
f 103/3/65 104/3/64 106/3/66 105/3/67
f 105/3/67 106/3/66 96/3/57 95/3/56
f 95/3/56 97/3/59 132/3/68 131/3/69
f 107/3/70 108/3/71 110/3/72 109/3/73
f 109/3/73 110/3/72 112/3/74 111/3/75
f 111/3/75 112/3/74 114/3/76 113/3/77
f 113/3/77 114/3/76 116/3/78 115/3/79
f 110/3/72 108/3/71 118/3/80 116/3/78 114/3/76 112/3/74
f 115/3/79 116/3/78 118/3/80 117/3/81
f 117/3/81 118/3/80 108/3/71 107/3/70
f 109/3/73 111/3/75 139/3/82 138/3/83
f 129/3/41 128/3/40 152/3/84 153/3/85
f 135/3/86 136/3/87 160/3/88 159/3/89
f 121/3/90 119/3/91 143/3/92 145/3/93
f 142/3/94 137/3/95 161/3/96 166/3/97
f 105/3/67 95/3/56 131/3/69 136/3/87
f 115/3/79 117/3/81 142/3/94 141/3/98
f 78/3/34 76/3/32 121/3/90 122/3/99
f 88/3/48 86/3/46 125/3/100 127/3/101
f 74/3/30 72/3/29 120/3/102 119/3/91
f 101/3/63 103/3/65 135/3/86 134/3/103
f 111/3/75 113/3/77 140/3/104 139/3/82
f 107/3/70 109/3/73 138/3/83 137/3/95
f 72/3/29 82/3/42 124/3/53 120/3/102
f 94/3/54 92/3/38 129/3/41 130/3/105
f 97/3/59 99/3/61 133/3/106 132/3/68
f 117/3/81 107/3/70 137/3/95 142/3/94
f 80/3/36 78/3/34 122/3/99 123/3/52
f 90/3/39 88/3/48 127/3/101 128/3/40
f 86/3/46 84/3/45 126/3/107 125/3/100
f 103/3/65 105/3/67 136/3/87 135/3/86
f 113/3/77 115/3/79 141/3/98 140/3/104
f 76/3/32 74/3/30 119/3/91 121/3/90
f 84/3/45 94/3/54 130/3/105 126/3/107
f 99/3/61 101/3/63 134/3/103 133/3/106
f 156/3/108 157/3/109 181/3/110 180/3/111
f 163/3/112 164/3/113 188/3/114 187/3/115
f 144/3/116 148/3/117 172/3/118 168/3/119
f 155/3/120 156/3/108 180/3/111 179/3/121
f 122/3/99 121/3/90 145/3/93 146/3/122
f 136/3/87 131/3/69 155/3/120 160/3/88
f 130/3/105 129/3/41 153/3/85 154/3/123
f 123/3/52 122/3/99 146/3/122 147/3/124
f 137/3/95 138/3/83 162/3/125 161/3/96
f 126/3/107 130/3/105 154/3/123 150/3/126
f 124/3/53 123/3/52 147/3/124 148/3/117
f 138/3/83 139/3/82 163/3/112 162/3/125
f 131/3/69 132/3/68 156/3/108 155/3/120
f 120/3/102 124/3/53 148/3/117 144/3/116
f 139/3/82 140/3/104 164/3/113 163/3/112
f 132/3/68 133/3/106 157/3/109 156/3/108
f 125/3/100 126/3/107 150/3/126 149/3/127
f 140/3/104 141/3/98 165/3/128 164/3/113
f 133/3/106 134/3/103 158/3/129 157/3/109
f 127/3/101 125/3/100 149/3/127 151/3/130
f 141/3/98 142/3/94 166/3/97 165/3/128
f 119/3/91 120/3/102 144/3/116 143/3/92
f 134/3/103 135/3/86 159/3/89 158/3/129
f 128/3/40 127/3/101 151/3/130 152/3/84
f 167/3/131 168/3/119 172/3/118 171/3/132 170/3/133 169/3/134
f 173/3/135 174/3/136 178/3/137 177/3/138 176/3/139 175/3/140
f 179/3/121 180/3/111 181/3/110 182/3/141 183/3/142 184/3/143
f 185/3/144 186/3/145 187/3/115 188/3/114 189/3/146 190/3/147
f 149/3/127 150/3/126 174/3/136 173/3/135
f 164/3/113 165/3/128 189/3/146 188/3/114
f 157/3/109 158/3/129 182/3/141 181/3/110
f 151/3/130 149/3/127 173/3/135 175/3/140
f 165/3/128 166/3/97 190/3/147 189/3/146
f 143/3/92 144/3/116 168/3/119 167/3/131
f 158/3/129 159/3/89 183/3/142 182/3/141
f 152/3/84 151/3/130 175/3/140 176/3/139
f 166/3/97 161/3/96 185/3/144 190/3/147
f 145/3/93 143/3/92 167/3/131 169/3/134
f 159/3/89 160/3/88 184/3/143 183/3/142
f 153/3/85 152/3/84 176/3/139 177/3/138
f 146/3/122 145/3/93 169/3/134 170/3/133
f 160/3/88 155/3/120 179/3/121 184/3/143
f 154/3/123 153/3/85 177/3/138 178/3/137
f 147/3/124 146/3/122 170/3/133 171/3/132
f 161/3/96 162/3/125 186/3/145 185/3/144
f 150/3/126 154/3/123 178/3/137 174/3/136
f 148/3/117 147/3/124 171/3/132 172/3/118
f 162/3/125 163/3/112 187/3/115 186/3/145
f 254/4/148 221/4/148 224/4/148 194/4/148
f 244/4/148 191/4/148 195/4/148 241/4/148
f 248/4/148 227/4/148 231/4/148 251/4/148
f 227/4/148 226/4/148 232/4/148 231/4/148
f 226/4/148 225/4/148 233/4/148 232/4/148
f 237/4/148 236/4/148 225/4/148 228/4/148
f 228/4/148 225/4/148 226/4/148 229/4/148
f 229/4/148 226/4/148 227/4/148 230/4/148
f 206/4/148 215/4/148 232/4/148 233/4/148
f 215/4/148 205/4/148 231/4/148 232/4/148
f 251/4/148 231/4/148 205/4/148 250/4/148
f 234/4/148 235/4/148 206/4/148 233/4/148
f 235/4/148 238/4/148 214/4/148 206/4/148
f 238/4/148 239/4/148 204/4/148 214/4/148
f 247/4/148 208/4/148 209/4/148 242/4/148
f 204/4/148 239/4/148 240/4/148 202/4/148
f 246/4/148 247/4/148 239/4/148 238/4/148
f 243/4/148 246/4/148 238/4/148 235/4/148
f 241/4/148 243/4/148 235/4/148 234/4/148
f 245/4/148 244/4/148 236/4/148 237/4/148
f 225/4/148 236/4/148 234/4/148 233/4/148
f 211/4/148 212/4/148 202/4/148 240/4/148
f 218/4/148 213/4/148 202/4/148 212/4/148
f 210/4/148 211/4/148 240/4/148 242/4/148
f 207/4/148 210/4/148 242/4/148 209/4/148
f 193/4/148 191/4/148 244/4/148 245/4/148
f 195/4/148 197/4/148 243/4/148 241/4/148
f 197/4/148 199/4/148 246/4/148 243/4/148
f 199/4/148 208/4/148 247/4/148 246/4/148
f 239/4/148 247/4/148 242/4/148 240/4/148
f 236/4/148 244/4/148 241/4/148 234/4/148
f 250/4/148 205/4/148 216/4/148 252/4/148
f 252/4/148 216/4/148 203/4/148 253/4/148
f 201/4/148 219/4/148 203/4/148 217/4/148
f 257/4/148 252/4/148 253/4/148 258/4/148
f 255/4/148 250/4/148 252/4/148 257/4/148
f 256/4/148 251/4/148 250/4/148 255/4/148
f 221/4/148 248/4/148 251/4/148 256/4/148
f 230/4/148 227/4/148 248/4/148 249/4/148
f 219/4/148 220/4/148 253/4/148 203/4/148
f 224/4/148 221/4/148 256/4/148 192/4/148
f 192/4/148 256/4/148 255/4/148 196/4/148
f 196/4/148 255/4/148 257/4/148 198/4/148
f 198/4/148 257/4/148 258/4/148 200/4/148
f 249/4/148 248/4/148 221/4/148 254/4/148
f 220/4/148 222/4/148 258/4/148 253/4/148
f 222/4/148 223/4/148 200/4/148 258/4/148
f 473/4/149 259/4/150 514/4/151 515/4/152
f 314/5/153 294/6/153 263/7/153 261/8/153
f 289/9/153 305/10/153 306/11/153 300/12/153
f 300/12/153 306/11/153 307/13/153 299/14/153
f 299/14/153 307/13/153 308/15/153 298/16/153
f 301/17/153 302/18/153 298/16/153 297/19/153
f 302/18/153 303/20/153 299/14/153 298/16/153
f 303/20/153 304/21/153 300/12/153 299/14/153
f 281/22/153 308/15/153 307/13/153 280/23/153
f 280/23/153 307/13/153 306/11/153 275/24/153
f 305/10/153 296/25/153 275/24/153 306/11/153
f 312/26/153 308/15/153 281/22/153 295/27/153
f 295/27/153 281/22/153 282/28/153 309/29/153
f 309/29/153 282/28/153 278/30/153 310/31/153
f 317/32/153 311/33/153 283/34/153 267/35/153
f 278/30/153 279/36/153 318/37/153 310/31/153
f 316/38/153 309/29/153 310/31/153 317/32/153
f 313/39/153 295/27/153 309/29/153 316/38/153
f 294/6/153 312/26/153 295/27/153 313/39/153
f 315/40/153 301/17/153 297/19/153 314/5/153
f 298/16/153 308/15/153 312/26/153 297/19/153
f 285/41/153 318/37/153 279/36/153 284/42/153
f 286/43/153 284/42/153 279/36/153 287/44/153
f 272/45/153 311/33/153 318/37/153 285/41/153
f 273/46/153 283/34/153 311/33/153 272/45/153
f 262/47/153 315/40/153 314/5/153 261/8/153
f 263/7/153 294/6/153 313/39/153 265/48/153
f 265/48/153 313/39/153 316/38/153 268/49/153
f 268/49/153 316/38/153 317/32/153 267/35/153
f 310/31/153 318/37/153 311/33/153 317/32/153
f 297/19/153 312/26/153 294/6/153 314/5/153
f 296/25/153 319/50/153 274/51/153 275/24/153
f 319/50/153 320/52/153 277/53/153 274/51/153
f 271/54/153 276/55/153 277/53/153 270/56/153
f 324/57/153 325/58/153 320/52/153 319/50/153
f 322/59/153 324/57/153 319/50/153 296/25/153
f 323/60/153 322/59/153 296/25/153 305/10/153
f 290/61/153 323/60/153 305/10/153 289/9/153
f 259/62/154 290/62/155 445/62/156 446/62/157
f 270/56/153 277/53/153 320/52/153 288/63/153
f 259/64/153 260/65/153 323/60/153 290/61/153
f 260/65/153 264/66/153 322/59/153 323/60/153
f 264/66/153 266/67/153 324/57/153 322/59/153
f 266/67/153 269/68/153 325/58/153 324/57/153
f 424/62/158 414/62/159 448/62/160 451/62/161
f 288/63/153 320/52/153 325/58/153 291/69/153
f 291/69/153 325/58/153 269/68/153 292/70/153
f 293/4/162 272/4/162 285/4/163 321/4/163
f 453/4/164 284/4/164 286/4/165 452/4/165
f 455/4/166 268/4/166 267/4/167 454/4/167
f 457/4/168 287/4/168 279/4/169 456/4/169
f 458/4/170 265/4/170 268/4/166 455/4/166
f 460/4/171 278/4/171 282/4/172 459/4/172
f 462/4/173 269/4/173 266/4/174 461/4/174
f 464/4/175 280/4/175 275/4/176 463/4/176
f 466/4/177 271/4/177 270/4/178 465/4/178
f 468/4/179 274/4/179 277/4/180 467/4/180
f 470/4/181 273/4/181 272/4/162 293/4/162
f 471/4/182 276/4/182 271/4/177 466/4/177
f 463/4/176 275/4/176 274/4/179 468/4/179
f 452/4/165 286/4/165 287/4/168 457/4/168
f 467/4/180 277/4/180 276/4/182 471/4/182
f 465/4/178 270/4/178 288/4/183 472/4/183
f 456/4/169 279/4/169 278/4/171 460/4/171
f 474/4/184 260/4/184 259/4/150 473/4/149
f 475/4/185 281/4/185 280/4/175 464/4/175
f 469/4/186 262/4/186 261/4/187 476/4/187
f 472/4/183 288/4/183 291/4/188 477/4/188
f 459/4/172 282/4/172 281/4/185 475/4/185
f 476/4/187 261/4/187 263/4/189 478/4/189
f 477/4/188 291/4/188 292/4/190 479/4/190
f 454/4/167 267/4/167 283/4/191 480/4/191
f 481/4/192 264/4/192 260/4/184 474/4/184
f 479/4/190 292/4/190 269/4/173 462/4/173
f 480/4/191 283/4/191 273/4/181 470/4/181
f 478/4/189 263/4/189 265/4/170 458/4/170
f 321/4/163 285/4/163 284/4/164 453/4/164
f 461/4/174 266/4/174 264/4/192 481/4/192
f 254/4/148 194/4/148 357/4/148 354/4/148
f 373/4/148 370/4/148 328/4/148 326/4/148
f 376/4/148 378/4/148 361/4/148 360/4/148
f 360/4/148 361/4/148 362/4/148 359/4/148
f 359/4/148 362/4/148 363/4/148 358/4/148
f 237/4/148 228/4/148 358/4/148 366/4/148
f 228/4/148 229/4/148 359/4/148 358/4/148
f 229/4/148 230/4/148 360/4/148 359/4/148
f 339/4/148 363/4/148 362/4/148 348/4/148
f 348/4/148 362/4/148 361/4/148 338/4/148
f 378/4/148 377/4/148 338/4/148 361/4/148
f 364/4/148 363/4/148 339/4/148 365/4/148
f 365/4/148 339/4/148 347/4/148 367/4/148
f 367/4/148 347/4/148 337/4/148 368/4/148
f 375/4/148 371/4/148 342/4/148 341/4/148
f 337/4/148 335/4/148 369/4/148 368/4/148
f 374/4/148 367/4/148 368/4/148 375/4/148
f 372/4/148 365/4/148 367/4/148 374/4/148
f 370/4/148 364/4/148 365/4/148 372/4/148
f 245/4/148 237/4/148 366/4/148 373/4/148
f 358/4/148 363/4/148 364/4/148 366/4/148
f 344/4/148 369/4/148 335/4/148 345/4/148
f 351/4/148 345/4/148 335/4/148 346/4/148
f 343/4/148 371/4/148 369/4/148 344/4/148
f 340/4/148 342/4/148 371/4/148 343/4/148
f 193/4/148 245/4/148 373/4/148 326/4/148
f 328/4/148 370/4/148 372/4/148 330/4/148
f 330/4/148 372/4/148 374/4/148 332/4/148
f 332/4/148 374/4/148 375/4/148 341/4/148
f 368/4/148 369/4/148 371/4/148 375/4/148
f 366/4/148 364/4/148 370/4/148 373/4/148
f 377/4/148 379/4/148 349/4/148 338/4/148
f 379/4/148 380/4/148 336/4/148 349/4/148
f 334/4/148 350/4/148 336/4/148 352/4/148
f 383/4/148 384/4/148 380/4/148 379/4/148
f 381/4/148 383/4/148 379/4/148 377/4/148
f 382/4/148 381/4/148 377/4/148 378/4/148
f 354/4/148 382/4/148 378/4/148 376/4/148
f 230/4/148 249/4/148 376/4/148 360/4/148
f 352/4/148 336/4/148 380/4/148 353/4/148
f 357/4/148 327/4/148 382/4/148 354/4/148
f 327/4/148 329/4/148 381/4/148 382/4/148
f 329/4/148 331/4/148 383/4/148 381/4/148
f 331/4/148 333/4/148 384/4/148 383/4/148
f 249/4/148 254/4/148 354/4/148 376/4/148
f 353/4/148 380/4/148 384/4/148 355/4/148
f 355/4/148 384/4/148 333/4/148 356/4/148
f 414/62/159 415/62/159 449/62/160 448/62/160
f 434/71/153 387/72/153 388/73/153 418/74/153
f 414/75/153 424/76/153 426/77/153 425/78/153
f 424/76/153 423/79/153 427/80/153 426/77/153
f 423/79/153 422/81/153 428/82/153 427/80/153
f 301/17/153 421/83/153 422/81/153 302/18/153
f 302/18/153 422/81/153 423/79/153 303/20/153
f 303/20/153 423/79/153 424/76/153 304/21/153
f 406/84/153 405/85/153 427/80/153 428/82/153
f 405/85/153 400/86/153 426/77/153 427/80/153
f 425/78/153 426/77/153 400/86/153 420/87/153
f 432/88/153 419/89/153 406/84/153 428/82/153
f 419/89/153 429/90/153 407/91/153 406/84/153
f 429/90/153 430/92/153 403/93/153 407/91/153
f 436/94/153 392/95/153 408/96/153 431/97/153
f 403/93/153 430/92/153 437/98/153 404/99/153
f 435/100/153 436/94/153 430/92/153 429/90/153
f 433/101/153 435/100/153 429/90/153 419/89/153
f 418/74/153 433/101/153 419/89/153 432/88/153
f 315/40/153 434/71/153 421/83/153 301/17/153
f 422/81/153 421/83/153 432/88/153 428/82/153
f 410/102/153 409/103/153 404/99/153 437/98/153
f 411/104/153 412/105/153 404/99/153 409/103/153
f 397/106/153 410/102/153 437/98/153 431/97/153
f 398/107/153 397/106/153 431/97/153 408/96/153
f 262/47/153 387/72/153 434/71/153 315/40/153
f 388/73/153 390/108/153 433/101/153 418/74/153
f 390/108/153 393/109/153 435/100/153 433/101/153
f 393/109/153 392/95/153 436/94/153 435/100/153
f 430/92/153 436/94/153 431/97/153 437/98/153
f 421/83/153 434/71/153 418/74/153 432/88/153
f 420/87/153 400/86/153 399/110/153 438/111/153
f 438/111/153 399/110/153 402/112/153 439/113/153
f 396/114/153 395/115/153 402/112/153 401/116/153
f 442/117/153 438/111/153 439/113/153 443/118/153
f 440/119/153 420/87/153 438/111/153 442/117/153
f 441/120/153 425/78/153 420/87/153 440/119/153
f 415/121/153 414/75/153 425/78/153 441/120/153
f 446/62/157 450/62/193 519/62/194 517/62/195
f 395/115/153 413/122/153 439/113/153 402/112/153
f 385/123/153 415/121/153 441/120/153 386/124/153
f 386/124/153 441/120/153 440/119/153 389/125/153
f 389/125/153 440/119/153 442/117/153 391/126/153
f 391/126/153 442/117/153 443/118/153 394/127/153
f 259/62/154 446/62/157 517/62/195 514/62/151
f 413/122/153 416/128/153 443/118/153 439/113/153
f 416/128/153 417/129/153 394/127/153 443/118/153
f 483/4/196 482/4/197 410/4/197 397/4/196
f 485/4/198 484/4/199 411/4/199 409/4/198
f 487/4/200 486/4/201 392/4/201 393/4/200
f 489/4/202 488/4/203 404/4/203 412/4/202
f 490/4/204 487/4/200 393/4/200 390/4/204
f 492/4/205 491/4/206 407/4/206 403/4/205
f 494/4/207 493/4/208 391/4/208 394/4/207
f 496/4/209 495/4/210 400/4/210 405/4/209
f 498/4/211 497/4/212 395/4/212 396/4/211
f 500/4/213 499/4/214 402/4/214 399/4/213
f 501/4/215 483/4/196 397/4/196 398/4/215
f 502/4/216 498/4/211 396/4/211 401/4/216
f 495/4/210 500/4/213 399/4/213 400/4/210
f 484/4/199 489/4/202 412/4/202 411/4/199
f 499/4/214 502/4/216 401/4/216 402/4/214
f 497/4/212 503/4/217 413/4/217 395/4/212
f 488/4/203 492/4/205 403/4/205 404/4/203
f 505/4/218 504/4/219 385/4/220 386/4/218
f 506/4/221 496/4/209 405/4/209 406/4/221
f 469/4/186 507/4/222 387/4/222 262/4/186
f 503/4/217 508/4/223 416/4/223 413/4/217
f 491/4/206 506/4/221 406/4/221 407/4/206
f 507/4/222 509/4/224 388/4/224 387/4/222
f 508/4/223 510/4/225 417/4/225 416/4/223
f 486/4/201 511/4/226 408/4/226 392/4/201
f 512/4/227 505/4/218 386/4/218 389/4/227
f 510/4/225 494/4/207 394/4/207 417/4/225
f 511/4/226 501/4/215 398/4/215 408/4/226
f 509/4/224 490/4/204 390/4/204 388/4/224
f 445/62/156 449/62/160 450/62/193 446/62/157
f 482/4/197 485/4/198 409/4/198 410/4/197
f 493/4/208 512/4/227 389/4/227 391/4/208
f 447/62/228 451/62/161 448/62/160 444/62/156
f 444/62/156 448/62/160 449/62/160 445/62/156
f 583/130/229 580/131/230 531/132/231 529/133/232
f 289/62/155 300/62/233 447/62/228 444/62/156
f 415/62/159 385/62/234 450/62/193 449/62/160
f 290/62/155 289/62/155 444/62/156 445/62/156
f 331/4/208 329/4/227 512/4/227 493/4/208
f 344/4/197 345/4/198 485/4/198 482/4/197
f 520/4/235 473/4/149 515/4/152 524/4/236
f 328/4/224 330/4/204 490/4/204 509/4/224
f 342/4/226 340/4/215 501/4/215 511/4/226
f 356/4/225 333/4/207 494/4/207 510/4/225
f 329/4/227 327/4/218 505/4/218 512/4/227
f 341/4/201 342/4/226 511/4/226 486/4/201
f 355/4/223 356/4/225 510/4/225 508/4/223
f 326/4/222 328/4/224 509/4/224 507/4/222
f 347/4/206 339/4/221 506/4/221 491/4/206
f 353/4/217 355/4/223 508/4/223 503/4/217
f 193/4/186 326/4/222 507/4/222 469/4/186
f 339/4/221 348/4/209 496/4/209 506/4/221
f 327/4/218 357/4/237 504/4/219 505/4/218
f 335/4/203 337/4/205 492/4/205 488/4/203
f 352/4/212 353/4/217 503/4/217 497/4/212
f 336/4/214 350/4/216 502/4/216 499/4/214
f 351/4/199 346/4/202 489/4/202 484/4/199
f 338/4/210 349/4/213 500/4/213 495/4/210
f 350/4/216 334/4/211 498/4/211 502/4/216
f 340/4/215 343/4/196 483/4/196 501/4/215
f 349/4/213 336/4/214 499/4/214 500/4/213
f 334/4/211 352/4/212 497/4/212 498/4/211
f 348/4/209 338/4/210 495/4/210 496/4/209
f 333/4/207 331/4/208 493/4/208 494/4/207
f 337/4/205 347/4/206 491/4/206 492/4/205
f 330/4/204 332/4/200 487/4/200 490/4/204
f 346/4/202 335/4/203 488/4/203 489/4/202
f 332/4/200 341/4/201 486/4/201 487/4/200
f 345/4/198 351/4/199 484/4/199 485/4/198
f 343/4/196 344/4/197 482/4/197 483/4/196
f 198/4/174 461/4/174 481/4/192 196/4/192
f 211/4/163 321/4/163 453/4/164 212/4/164
f 520/4/235 522/4/238 473/4/149
f 195/4/189 478/4/189 458/4/170 197/4/170
f 209/4/191 480/4/191 470/4/181 207/4/181
f 223/4/190 479/4/190 462/4/173 200/4/173
f 196/4/192 481/4/192 474/4/184 192/4/184
f 208/4/167 454/4/167 480/4/191 209/4/191
f 222/4/188 477/4/188 479/4/190 223/4/190
f 191/4/187 476/4/187 478/4/189 195/4/189
f 214/4/172 459/4/172 475/4/185 206/4/185
f 220/4/183 472/4/183 477/4/188 222/4/188
f 193/4/186 469/4/186 476/4/187 191/4/187
f 206/4/185 475/4/185 464/4/175 215/4/175
f 192/4/184 474/4/184 473/4/149 224/4/239
f 202/4/169 456/4/169 460/4/171 204/4/171
f 219/4/178 465/4/178 472/4/183 220/4/183
f 203/4/180 467/4/180 471/4/182 217/4/182
f 218/4/165 452/4/165 457/4/168 213/4/168
f 205/4/176 463/4/176 468/4/179 216/4/179
f 217/4/182 471/4/182 466/4/177 201/4/177
f 207/4/181 470/4/181 293/4/162 210/4/162
f 216/4/179 468/4/179 467/4/180 203/4/180
f 201/4/177 466/4/177 465/4/178 219/4/178
f 215/4/175 464/4/175 463/4/176 205/4/176
f 200/4/173 462/4/173 461/4/174 198/4/174
f 204/4/171 460/4/171 459/4/172 214/4/172
f 197/4/170 458/4/170 455/4/166 199/4/166
f 213/4/168 457/4/168 456/4/169 202/4/169
f 199/4/166 455/4/166 454/4/167 208/4/167
f 212/4/164 453/4/164 452/4/165 218/4/165
f 210/4/162 293/4/162 321/4/163 211/4/163
f 582/4/240 584/4/241 533/4/242 530/4/243
f 579/4/244 578/4/245 527/4/246 534/4/247
f 562/4/248 539/4/249 568/4/250 569/4/251
f 504/4/219 521/4/252 523/4/253 518/4/254
f 450/62/193 385/62/234 516/62/255 519/62/194
f 385/4/220 504/4/219 518/4/254 516/4/255
f 520/4/235 521/4/252 522/4/238
f 584/4/241 579/4/244 534/4/247 533/4/242
f 520/4/235 524/4/236 523/4/253 521/4/252
f 522/4/238 521/4/252 504/4/219
f 224/4/239 473/4/149 522/4/238 194/4/256
f 357/4/237 194/4/256 522/4/238 504/4/219
f 561/4/257 557/4/258 541/4/259 540/4/260
f 560/4/261 561/4/257 540/4/260 538/4/262
f 557/4/258 558/4/263 535/4/264 541/4/259
f 559/4/265 560/4/261 538/4/262 536/4/266
f 585/4/267 583/4/229 529/4/232 526/4/268
f 578/4/245 585/4/267 526/4/268 527/4/246
f 580/4/230 581/4/269 528/4/270 531/4/231
f 581/4/269 582/4/240 530/4/243 528/4/270
f 540/4/260 541/4/259 535/4/264 538/4/262
f 517/134/271 519/135/272 545/136/273 542/137/274
f 513/4/275 536/4/266 538/4/262 535/4/264
f 300/62/233 304/62/276 424/62/158 451/62/161 447/62/228
f 513/4/275 537/4/277 539/4/249 536/4/266
f 563/4/278 556/4/279 537/4/277 513/4/275
f 558/4/263 563/4/278 513/4/275 535/4/264
f 562/4/248 559/4/265 536/4/266 539/4/249
f 516/4/280 518/4/281 532/4/282 547/4/283
f 519/4/272 516/4/280 547/4/283 545/4/273
f 515/4/284 514/4/285 546/4/286 525/4/287
f 514/4/285 517/4/271 542/4/274 546/4/286
f 523/4/288 524/4/289 544/4/290 543/4/291
f 591/138/292 588/139/293 550/140/294 553/141/295
f 524/4/289 515/4/284 525/4/287 544/4/290
f 518/4/281 523/4/288 543/4/291 532/4/282
f 589/4/296 590/4/297 552/4/298 551/4/299
f 588/4/293 589/4/296 551/4/299 550/4/294
f 586/4/300 593/4/301 555/4/302 548/4/303
f 593/4/301 591/4/292 553/4/295 555/4/302
f 592/4/304 587/4/305 549/4/306 554/4/307
f 556/4/279 529/4/232 565/4/308 564/4/309
f 587/4/305 586/4/300 548/4/303 549/4/306
f 590/4/297 592/4/304 554/4/307 552/4/298
f 531/4/231 528/4/270 559/4/265 562/4/248
f 527/4/246 526/4/268 563/4/278 558/4/263
f 526/4/268 529/4/232 556/4/279 563/4/278
f 528/4/270 530/4/243 560/4/261 559/4/265
f 534/4/247 527/4/246 558/4/263 557/4/258
f 530/4/243 533/4/242 561/4/257 560/4/261
f 533/4/242 534/4/247 557/4/258 561/4/257
f 564/4/309 569/4/251 568/4/250 567/4/310
f 565/4/308 566/4/311 569/4/251 564/4/309
f 529/4/232 531/4/231 566/4/311 565/4/308
f 531/4/231 562/4/248 569/4/251 566/4/311
f 539/4/249 537/4/277 567/4/310 568/4/250
f 537/4/277 556/4/279 564/4/309 567/4/310
f 532/4/282 543/4/291 572/4/312 570/4/313
f 544/4/290 525/4/287 574/4/314 575/4/315
f 543/4/291 544/4/290 575/4/315 572/4/312
f 546/4/286 542/4/274 571/4/316 573/4/317
f 525/4/287 546/4/286 573/4/317 574/4/314
f 545/4/273 547/4/283 577/4/318 576/4/319
f 547/4/283 532/4/282 570/4/313 577/4/318
f 542/137/274 545/136/273 576/142/319 571/143/316
f 551/4/299 552/4/298 582/4/240 581/4/269
f 550/4/294 551/4/299 581/4/269 580/4/230
f 548/4/303 555/4/302 585/4/267 578/4/245
f 555/4/302 553/4/295 583/4/229 585/4/267
f 554/4/307 549/4/306 579/4/244 584/4/241
f 549/4/306 548/4/303 578/4/245 579/4/244
f 552/4/298 554/4/307 584/4/241 582/4/240
f 553/141/295 550/140/294 580/131/230 583/130/229
f 570/4/313 572/4/312 592/4/304 590/4/297
f 575/4/315 574/4/314 586/4/300 587/4/305
f 572/4/312 575/4/315 587/4/305 592/4/304
f 573/4/317 571/4/316 591/4/292 593/4/301
f 574/4/314 573/4/317 593/4/301 586/4/300
f 576/4/319 577/4/318 589/4/296 588/4/293
f 577/4/318 570/4/313 590/4/297 589/4/296
f 571/143/316 576/142/319 588/139/293 591/138/292
f 14/2/10 13/2/10 594/2/148 595/2/148
